<svg width="960" height="540" viewBox="0 0 960 540" fill="none" xmlns="http://www.w3.org/2000/svg">
  <rect width="960" height="540" fill="#0D1113"/>
  <rect x="250" y="70" width="460" height="400" rx="18" fill="#121619" stroke="#2C3940" stroke-width="2"/>
  <text x="292" y="130" fill="#F4F7F8" font-family="Segoe UI, Arial" font-size="44" font-weight="700">Keyme</text>
  <text x="294" y="164" fill="#AEBAC2" font-family="Segoe UI, Arial" font-size="18">Mechanical keyboard sounds for Windows</text>
  <text x="294" y="222" fill="#50DC96" font-family="Segoe UI, Arial" font-size="18" font-weight="700">Status: running</text>
  <text x="294" y="280" fill="#F4F7F8" font-family="Segoe UI, Arial" font-size="18">Sound profile</text>
  <rect x="474" y="256" width="188" height="34" rx="8" fill="#1E272C" stroke="#9DEBC7"/>
  <text x="492" y="279" fill="#F4F7F8" font-family="Segoe UI, Arial" font-size="16">holy-panda</text>
  <text x="294" y="342" fill="#F4F7F8" font-family="Segoe UI, Arial" font-size="18">Volume: 75%</text>
  <rect x="474" y="330" width="188" height="8" rx="4" fill="#2C3940"/>
  <rect x="474" y="330" width="142" height="8" rx="4" fill="#F8D66D"/>
  <circle cx="616" cy="334" r="12" fill="#F8D66D"/>
  <rect x="294" y="392" width="76" height="34" rx="8" fill="#9DEBC7"/>
  <text x="318" y="414" fill="#121619" font-family="Segoe UI, Arial" font-size="15" font-weight="700">Save</text>
  <rect x="386" y="392" width="132" height="34" rx="8" fill="#E8F1F2"/>
  <text x="408" y="414" fill="#121619" font-family="Segoe UI, Arial" font-size="15" font-weight="700">Start / Restart</text>
  <rect x="534" y="392" width="76" height="34" rx="8" fill="#F8D66D"/>
  <text x="558" y="414" fill="#121619" font-family="Segoe UI, Arial" font-size="15" font-weight="700">Stop</text>
</svg>
