<svg width="512" height="512" viewBox="0 0 512 512" fill="none" xmlns="http://www.w3.org/2000/svg">
  <rect width="512" height="512" rx="112" fill="#121619"/>
  <rect x="86" y="162" width="340" height="188" rx="44" fill="#1E272C" stroke="#9DEBC7" stroke-width="14"/>
  <rect x="128" y="206" width="56" height="44" rx="12" fill="#9DEBC7"/>
  <rect x="202" y="206" width="56" height="44" rx="12" fill="#F8D66D"/>
  <rect x="276" y="206" width="56" height="44" rx="12" fill="#E8F1F2"/>
  <rect x="350" y="206" width="34" height="44" rx="12" fill="#9DEBC7"/>
  <rect x="146" y="272" width="220" height="42" rx="16" fill="#E8F1F2"/>
  <path d="M118 115C150 74 202 52 256 52C310 52 362 74 394 115" stroke="#F8D66D" stroke-width="20" stroke-linecap="round"/>
  <path d="M160 126C182 101 217 88 256 88C295 88 330 101 352 126" stroke="#9DEBC7" stroke-width="14" stroke-linecap="round"/>
</svg>
